PathFileType	4	(X/Y/Z)	/Users/niels/Desktop/University/Third Semester/Perception and Action/Exam/Gymnastics Motion Tracking/Code for Gym Tracking/Analyzed Data/Webcam_Backflip/id6_1_pure_Sports2D/id6_1_pure_Sports2D_px_person00.trc
DataRate	CameraRate	NumFrames	NumMarkers	Units	OrigDataRate	OrigDataStartFrame	OrigNumFrames
29.81132075471698	29.81132075471698	9	22	m	29.81132075471698	79	159
Frame#	Time	Hip			RHip			RKnee			RAnkle			RBigToe			RSmallToe			RHeel			LHip			LKnee			LAnkle			LBigToe			LSmallToe			LHeel			Neck			Head			Nose			RShoulder			RElbow			RWrist			LShoulder			LElbow			LWrist		
		X1	Y1	Z1	X2	Y2	Z2	X3	Y3	Z3	X4	Y4	Z4	X5	Y5	Z5	X6	Y6	Z6	X7	Y7	Z7	X8	Y8	Z8	X9	Y9	Z9	X10	Y10	Z10	X11	Y11	Z11	X12	Y12	Z12	X13	Y13	Z13	X14	Y14	Z14	X15	Y15	Z15	X16	Y16	Z16	X17	Y17	Z17	X18	Y18	Z18	X19	Y19	Z19	X20	Y20	Z20	X21	Y21	Z21	X22	Y22	Z22
79	2.65	0.8273128485018933	-0.4502880766576737	0.0	0.8278004607585402	-0.44965453514787856	0.0	0.8427305627612212	-0.5582697784044742	0.0	0.8316877636692241	-0.6654795030868539	0.0	0.8556838390219264	-0.7101773739929492	0.0	0.8487445175801063	-0.7105551227533562	0.0	0.8250972450663575	-0.6815992338437552	0.0	0.8270495698636222	-0.44673350669037315	0.0	0.8390873769644129	-0.5563737081383812	0.0	0.8278511646123159	-0.6618779091170662	0.0	0.8550703214133587	-0.7015217812675534	0.0	0.8507083716609444	-0.6983358279522492	0.0	0.8161893307841046	-0.6777485743486701	0.0	0.8473994909101165	-0.3131873602663803	0.0	0.9001670550021993	-0.2529014083582783	0.0	0.884709094628462	-0.2938145889028395	0.0	0.8390033519890181	-0.3203419142197576	0.0	0.8376675254531301	-0.34262973606548847	0.0	0.8682946362813015	-0.3516253355405291	0.0	0.8379194278238031	-0.32141574760592784	0.0	0.8328889744417818	-0.36861125557514157	0.0	0.8794570012672767	-0.38548544307641913	0.0
80	2.6835443037974684	0.8289122356946611	-0.47797823417636015	0.0	0.829330071436314	-0.47766138520723783	0.0	0.8431147401437462	-0.5869605048497969	0.0	0.83035936753744	-0.6938988592968297	0.0	0.8535513739756164	-0.7356093395828194	0.0	0.8468801996255648	-0.7362953943250174	0.0	0.823718334306241	-0.7101894348880563	0.0	0.8287841536451196	-0.4751281638113958	0.0	0.8394125612283534	-0.5852433639014204	0.0	0.8266584873391712	-0.6900840504909969	0.0	0.8540519479805361	-0.7147270260854176	0.0	0.8497013366757618	-0.7240370440899154	0.0	0.814484356158913	-0.7061562254994168	0.0	0.8483793819802776	-0.3399898504768774	0.0	0.897659201696592	-0.2799467946025096	0.0	0.8845573629768739	-0.32041628916585074	0.0	0.8396542741184055	-0.35008460509554484	0.0	0.8276086304611457	-0.37783922352836463	0.0	0.8532735222036889	-0.39925111980507766	0.0	0.8388820862145314	-0.34957154011183944	0.0	0.8289932017848741	-0.3979588753238049	0.0	0.8750412797660619	-0.41842089845177294	0.0
81	2.7170886075949365	0.829694429572243	-0.5095629028333601	0.0	0.8300309258492022	-0.5096129144991356	0.0	0.8438727290305976	-0.6190626918186026	0.0	0.828506421062379	-0.7251099517361779	0.0	0.8511088074120811	-0.7624328200466574	0.0	0.8447980448486394	-0.7634432062964986	0.0	0.8215480658601767	-0.7413460151304471	0.0	0.8299619646819169	-0.5076321407671726	0.0	0.8402644321106324	-0.6175737386726642	0.0	0.8253151535100071	-0.7213397685572445	0.0	0.8528012110487546	-0.721836572236498	0.0	0.8485248791895027	-0.7523535687573029	0.0	0.8127622167093399	-0.7371296389606012	0.0	0.8494285602423801	-0.3703986609241676	0.0	0.8948696061148725	-0.3108435113396378	0.0	0.884657437696909	-0.3502999258959316	0.0	0.8409365193741021	-0.38291982686864423	0.0	0.8194195245605818	-0.4144426923258104	0.0	0.8373005230594244	-0.44813950372379074	0.0	0.8402233741288445	-0.3811465263446231	0.0	0.8259329804298091	-0.4314194937516256	0.0	0.8707627847555126	-0.4555531745440784	0.0
82	2.750632911392405	0.8296180682905452	-0.5438938211531723	0.0	0.8299295757072228	-0.5443079082860481	0.0	0.8450659168763245	-0.6531182969851178	0.0	0.8261118983439182	-0.7574298355461421	0.0	0.8485569860048512	-0.7893400041556868	0.0	0.8426166204993246	-0.7906801495359137	0.0	0.8185853282815259	-0.7732070371595885	0.0	0.830370811127705	-0.542891577341663	0.0	0.8415871782097508	-0.6518022466952258	0.0	0.823641145347614	-0.7539389168045009	0.0	0.8514106557928599	-0.7229978799263039	0.0	0.8468313728704687	-0.7819882472585908	0.0	0.8108441232287984	-0.7689470846613131	0.0	0.8507915601699949	-0.40327193805645617	0.0	0.8923021810797143	-0.3439713984408103	0.0	0.8854442853363172	-0.382284810242266	0.0	0.8425671488846773	-0.4175600279687585	0.0	0.8139284855762963	-0.45222970648925026	0.0	0.8226622705097918	-0.49673714108466643	0.0	0.8419314414299446	-0.4149467167366045	0.0	0.8242822571962342	-0.4675856223679186	0.0	0.8662263924570467	-0.4960485333405638	0.0
83	2.784177215189873	0.8288820423603205	-0.5789592034529226	0.0	0.8292456254861593	-0.5797283046891855	0.0	0.8465998997019826	-0.6871140267382532	0.0	0.823327023490608	-0.7887952356939729	0.0	0.8463877812010715	-0.8150237700192313	0.0	0.8406763335111486	-0.8167535831516316	0.0	0.8150296987679939	-0.803653114119997	0.0	0.8300212104935394	-0.5787503558131211	0.0	0.8431346612329617	-0.6858421476052097	0.0	0.8215059927047096	-0.7856839138385495	0.0	0.8502679107214556	-0.724857537585637	0.0	0.8445079126470801	-0.8113203485644996	0.0	0.8085391264537531	-0.799613183524253	0.0	0.8525005755203804	-0.4369236607307522	0.0	0.8903446621859534	-0.3773191805269935	0.0	0.8870744198301816	-0.4147968620332146	0.0	0.8441275407603586	-0.4522757725865607	0.0	0.811448025838821	-0.4907099990891868	0.0	0.8115810073634842	-0.5436849407857909	0.0	0.8439657604348315	-0.44924793252098444	0.0	0.8244230318925532	-0.5043886670262355	0.0	0.8614527941488762	-0.5380664965484413	0.0
84	2.8177215189873417	0.8278868535370155	-0.6118995369740977	0.0	0.8283559443311174	-0.6130589090144695	0.0	0.8482758167118652	-0.718542915277189	0.0	0.8203882800074592	-0.8169210832563903	0.0	0.8451162537845106	-0.8381808445818222	0.0	0.8393033570832664	-0.8403356750625757	0.0	0.811152432233553	-0.8304685547192172	0.0	0.8292455338300497	-0.6123230183853258	0.0	0.8446024401417013	-0.7171961387616321	0.0	0.8189043683175029	-0.8141148110201468	0.0	0.849763826988329	-0.7396324404128586	0.0	0.8416860647221251	-0.8383929206862079	0.0	0.8057306130519148	-0.8270268537848217	0.0	0.8544981124915101	-0.4689511934549524	0.0	0.8891199510663981	-0.4085622271292626	0.0	0.8894159481188084	-0.4457140518044143	0.0	0.8454539876200843	-0.4847270795797654	0.0	0.8116878869763914	-0.5280736243708408	0.0	0.80537953612758	-0.5868218306777842	0.0	0.8462585276094495	-0.4816806637801437	0.0	0.8261814014360591	-0.5393539955851014	0.0	0.8569141075304041	-0.5786834423462852	0.0
85	2.85126582278481	0.8270217836136498	-0.6393650079268548	0.0	0.8276268982214283	-0.6409475103634398	0.0	0.8499041151652171	-0.7445279266478262	0.0	0.8175201838058838	-0.8393752171718757	0.0	0.8448026303431054	-0.8572433057646949	0.0	0.8383694598429883	-0.8596722098316786	0.0	0.8072473520348808	-0.8513203468418423	0.0	0.8284903723576185	-0.6402867803095558	0.0	0.845864640324415	-0.743065502169493	0.0	0.816063572327401	-0.8366880409062784	0.0	0.8499179312747606	-0.7725863114665557	0.0	0.8386014168469758	-0.8605807422307414	0.0	0.8025906371418772	-0.8489500754590424	0.0	0.8567659203240345	-0.4964133157424885	0.0	0.8886618814065237	-0.43510467921773543	0.0	0.8922771824776922	-0.472353044405821	0.0	0.8468083913657407	-0.5121068817700909	0.0	0.8140188888036896	-0.5611315875478309	0.0	0.8045021398367165	-0.6232679598051581	0.0	0.8487823479481019	-0.5093873587587309	0.0	0.8289881094988996	-0.5695772734451406	0.0	0.8533284316058977	-0.6142503648114134	0.0
86	2.8848101265822783	0.8264742410201597	-0.6582184636381726	0.0	0.827241885352129	-0.660135784115925	0.0	0.8514891039210822	-0.7622331092331359	0.0	0.8149438269359467	-0.8538776269671952	0.0	0.8449691631299875	-0.8702413291104385	0.0	0.8372943895418457	-0.8726453126677962	0.0	0.8036698327294278	-0.864134496824895	0.0	0.828042849740535	-0.6594786515686482	0.0	0.8472138804669227	-0.7606572199480476	0.0	0.8135134744400208	-0.8510939597066646	0.0	0.8503548020160298	-0.8130313142816535	0.0	0.8358372103995528	-0.8747349340428194	0.0	0.7997026356233663	-0.863062055258318	0.0	0.8593361646524306	-0.51641063145304	0.0	0.8892652771118126	-0.45436744391682077	0.0	0.8955985635390196	-0.4918589289460513	0.0	0.848734803723406	-0.5316708232685952	0.0	0.8178437283159764	-0.5862246775841159	0.0	0.8087832473636247	-0.6500511524359791	0.0	0.8516054420057737	-0.5294924461363766	0.0	0.8322466865517899	-0.5917873330260305	0.0	0.8513526738281225	-0.64106352119724	0.0
87	2.918354430379747	0.8262955844850607	-0.666382512561587	0.0	0.8272290320997596	-0.6683879331717656	0.0	0.853454297455349	-0.7695307009754033	0.0	0.8130034336427304	-0.858757587958897	0.0	0.845091487904619	-0.8751669080024813	0.0	0.8357070506845431	-0.8772941441083915	0.0	0.8008384744061348	-0.8676311099684952	0.0	0.8279786145999113	-0.667745670384122	0.0	0.8493482292274777	-0.7678420973262224	0.0	0.8119144053982152	-0.855692039090352	0.0	0.8506195069974742	-0.844639902038049	0.0	0.8345070060190493	-0.8784417181796744	0.0	0.7977737145679341	-0.8673187628069698	0.0	0.8622785013040395	-0.5267931516091731	0.0	0.8914296524274266	-0.46438871055685454	0.0	0.8994218479202146	-0.5020171140108124	0.0	0.8517234864556563	-0.5414254651879451	0.0	0.8227049411059887	-0.6004250252787023	0.0	0.8175242347806206	-0.6647876275220027	0.0	0.8547996093542896	-0.5397927479068308	0.0	0.835442018272428	-0.6032015274383582	0.0	0.8513912739897702	-0.6561742010736384	0.0
